<svg xmlns="http://www.w3.org/2000/svg" viewBox="0 0 36 36" role="img" aria-label="Uzbekistan">
  <clipPath id="c"><circle cx="18" cy="18" r="18"/></clipPath>
  <g clip-path="url(#c)">
    <path fill="#1EB5E5" d="M0 0h36v12H0z"/>
    <path fill="#fff" d="M0 12h36v12H0z"/>
    <path fill="#43B02A" d="M0 24h36v12H0z"/>
    <path fill="#CE1126" d="M0 11h36v1.5H0zm0 23.5h36V36H0z"/>
    <circle cx="7" cy="5.7" r="3.2" fill="#fff"/>
    <circle cx="8.2" cy="5.7" r="3.2" fill="#1EB5E5"/>
    <g fill="#fff">
      <circle cx="14" cy="3.6" r=".8"/><circle cx="17" cy="3.6" r=".8"/><circle cx="20" cy="3.6" r=".8"/>
      <circle cx="12.5" cy="6.2" r=".8"/><circle cx="15.5" cy="6.2" r=".8"/><circle cx="18.5" cy="6.2" r=".8"/><circle cx="21.5" cy="6.2" r=".8"/>
      <circle cx="14" cy="8.8" r=".8"/><circle cx="17" cy="8.8" r=".8"/><circle cx="20" cy="8.8" r=".8"/>
    </g>
  </g>
</svg>
